{"title":"Company of Heroes-720p MP4 AAC x264 BRRip 2013-CC","uid":8184359,"size":3073086934,"categoryP":"video","categoryS":"hd___movies","magnet":"?xt=urn:btih:48458ad16b8e4c988c4d6e7531329406c687dbdd&amp;dn=Company+of+Heroes-720p+MP4+AAC+x264+BRRip+2013-CC&amp;tr=udp%3A%2F%2Ftracker.openbittorrent.com%3A80&amp;tr=udp%3A%2F%2Fopen.demonii.com%3A1337&amp;tr=udp%3A%2F%2Ftracker.coppersurfer.tk%3A6969&amp;tr=udp%3A%2F%2Fexodus.desync.com%3A6969","seeders":1,"leechers":0,"uploader":"Caveman44","files":-1,"time":1361699583,"description":" &lt;a href=&quot;http://www.imdb.com/title/tt2555426/&quot; rel=&quot;nofollow&quot; target=&quot;_NEW&quot;&gt;http://www.imdb.com/title/tt2555426/&lt;/a&gt;\n\nSource: Company.Of.Heroes.2013.720p.BluRay.DTS.x264-PublicHD Thanks!\n\nSubs: Arabic, Bosnian, Brazilian, Dutch, English, French, Greek, Hungarian, Portuguese, Romanian, Servian, Spanish and Vietnamese.\n\nSample and Screens included.\n\nGeneral\nComplete name                            : Company of Heroes-720p MP4 AAC x264 BRRip 2013-CC.mp4\nFormat                                   : MPEG-4\nFormat profile                           : Base Media\nCodec ID                                 : isom\nFile size                                : 2.83 GiB\nDuration                                 : 1h 40mn\nOverall bit rate mode                    : Variable\nOverall bit rate                         : 4 033 Kbps\nEncoded date                             : UTC 2013-02-22 08:33:02\n\nVideo\nID                                       : 1\nFormat                                   : AVC\nFormat/Info                              : Advanced Video Codec\nFormat profile                           : &lt;a class=&quot;__cf_email__&quot; href=&quot;/cdn-cgi/l/email-protection&quot; data-cfemail=&quot;6820010f0028245c4659&quot;&gt;[email&amp;#160;protected]&lt;/a&gt;&lt;script cf-hash='f9e31' type=&quot;text/javascript&quot;&gt;\n/* &lt;![CDATA[ */!function(){try{var t=&quot;currentScript&quot;in document?document.currentScript:function(){for(var t=document.getElementsByTagName(&quot;script&quot;),e=t.length;e--;)if(t[e].getAttribute(&quot;cf-hash&quot;))return t[e]}();if(t&amp;&amp;t.previousSibling){var e,r,n,i,c=t.previousSibling,a=c.getAttribute(&quot;data-cfemail&quot;);if(a){for(e=&quot;&quot;,r=parseInt(a.substr(0,2),16),n=2;a.length-n;n+=2)i=parseInt(a.substr(n,2),16)^r,e+=String.fromCharCode(i);e=document.createTextNode(e),c.parentNode.replaceChild(e,c)}}}catch(u){}}();/* ]]&gt; */&lt;/script&gt;\nFormat settings, CABAC                   : Yes\nFormat settings, ReFrames                : 5 frames\nCodec ID                                 : avc1\nCodec ID/Info                            : Advanced Video Coding\nDuration                                 : 1h 40mn\nBit rate                                 : 3 703 Kbps\nMaximum bit rate                         : 24.9 Mbps\nWidth                                    : 1 280 pixels\nHeight                                   : 720 pixels\nDisplay aspect ratio                     : 16:9\nFrame rate mode                          : Variable\nFrame rate                               : 23.976 fps\nMinimum frame rate                       : 16.129 fps\nMaximum frame rate                       : 24.390 fps\nColor space                              : YUV\nChroma subsampling                       : 4:2:0\nBit depth                                : 8 bits\nScan type                                : Progressive\nBits/(Pixel*Frame)                       : 0.168\nStream size                              : 2.56 GiB (90%)\nWriting library                          : x264 core 112\n\nAudio\nID                                       : 2\nFormat                                   : AAC\nFormat/Info                              : Advanced Audio Codec\nFormat profile                           : LC\nCodec ID                                 : 40\nDuration                                 : 1h 40mn\nBit rate mode                            : Variable\nBit rate                                 : 384 Kbps\nMaximum bit rate                         : 541 Kbps\nChannel(s)                               : 6 channels\nChannel positions                        : Front: L C R, Side: L R, LFE\nSampling rate                            : 48.0 KHz\nCompression mode                         : Lossy\nDelay relative to video                  : 83ms\nStream size                              : 276 MiB (10%)\nLanguage                                 : English\n\nEnjoy...\n\nComing soon: Mortal Kombat, Tropa de Elite, Serenity and more...","torrent":{"xt":"urn:btih:48458ad16b8e4c988c4d6e7531329406c687dbdd","amp;dn":"Company+of+Heroes-720p+MP4+AAC+x264+BRRip+2013-CC","amp;tr":["udp%3A%2F%2Ftracker.openbittorrent.com%3A80","udp%3A%2F%2Fopen.demonii.com%3A1337","udp%3A%2F%2Ftracker.coppersurfer.tk%3A6969","udp%3A%2F%2Fexodus.desync.com%3A6969"],"infoHash":"48458ad16b8e4c988c4d6e7531329406c687dbdd","infoHashBuffer":{"type":"Buffer","data":[72,69,138,209,107,142,76,152,140,77,110,117,49,50,148,6,198,135,219,221]},"announce":[],"urlList":[]}}